<svg version="1.1" xmlns="http://www.w3.org/2000/svg" xmlns:xlink="http://www.w3.org/1999/xlink" width="919.74442" height="663.01955" viewBox="0,0,919.74442,663.01955"><g transform="translate(231.59595,189.02535)"><g data-paper-data="{&quot;isPaintingLayer&quot;:true}" fill-rule="nonzero" stroke="none" stroke-linecap="butt" stroke-linejoin="miter" stroke-miterlimit="10" stroke-dasharray="" stroke-dashoffset="0" style="mix-blend-mode: normal"><path d="M-72.83143,54.38187c-2.02984,-1.46614 -2.68844,-4.22847 -4.15253,-6.25979c-1.46409,-2.03132 -3.8764,-3.52964 -4.62541,-5.91896c-2.20365,-7.02957 -1.11515,-13.92153 2.1875,-19.84375c0.42178,-0.75633 4.68028,-6.16725 4.69972,-6.91734c0.04764,-1.83788 -1.48445,-4.95581 -0.62128,-7.0274c6.19677,-14.87224 17.38721,-19.05707 30.45103,-27.45533c3.14246,-2.02018 12.07451,-8.20979 18.0983,-11.66538c11.65547,-6.68623 23.31791,-13.36039 35,-20c7.22534,-4.10658 22.65684,-13.74914 33.33581,-12.41427c3.10882,0.3886 8.49638,0.88716 10.9437,3.02856c1.70615,1.49288 2.15986,5.1545 4.42692,5.16326c2.44414,0.00944 3.74406,0.80366 6.27602,1.72119c2.3256,0.84275 5.34766,0.86945 6.86183,2.82546c0.69894,0.9029 1.32325,1.85891 1.93263,2.82578c1.27465,-0.109 2.56275,-0.19487 3.79241,-0.28541c7.60635,-3.82157 15.25179,-7.41712 23.34804,-11.08988c49.53579,-22.47128 122.00758,-71.91001 170.1581,-102.2196c8.98927,-5.65853 45.00392,-35.61629 65.23081,-25.9784c2.90237,1.38295 5.75674,5.24708 7.70858,7.58387c1.95185,2.33679 5.2459,5.83366 6.08989,8.93591c0.48532,1.78389 -0.15498,3.70579 0.02069,5.54616c0.09456,0.99059 0.77996,1.88549 0.78367,2.88058c0.00442,1.18494 -1.6676,4.96252 -1.98367,5.81313c-4.79971,12.91698 -17.49239,22.1894 -27.14899,31.35211c-1.52395,1.446 -3.00359,2.93906 -4.45646,4.45646c-5.95561,6.22013 -11.82448,12.52282 -17.7677,18.75479c-4.68574,4.9134 -17.57316,12.95694 -22.00028,17.43577c3.71156,-1.55736 7.42404,-3.11252 11.13764,-4.66504c6.75159,-2.8226 14.37058,-2.79766 21.23722,0.33894c3.6879,-3.445 7.14217,-6.9642 13.35057,-8.5411c40.58963,-10.30955 81.51013,-20.75757 122.25801,-30.80028c11.30698,-2.78672 22.25968,1.14158 28.30535,11.1757c1.73215,2.87488 2.14001,6.19568 2.64868,9.3355c0.22462,1.38646 -0.18422,4.49219 1.1501,4.05362c35.48689,-11.66395 70.0344,-26.01261 105.07093,-38.9667c19.81751,-7.32715 40.73674,-11.23564 61.14965,-16.68854c12.82244,-3.42526 31.28494,-4.01157 40.55373,7.20925c1.6433,1.98939 1.6269,4.89926 2.54698,7.30998c0.92008,2.41072 2.87107,4.56971 2.97111,7.1481c0.16329,4.20853 -1.59028,8.31037 -3.04653,12.2623c-0.24805,0.67316 -0.00413,1.52228 -0.41208,2.11241c-2.0473,2.96157 -5.67022,6.0197 -8.50697,8.20021c-14.11993,10.85354 -28.175,21.79121 -42.27673,32.66838c-0.24835,0.19156 -0.50009,0.3788 -0.75523,0.56121c-21.86543,15.63291 -43.79937,31.17034 -65.65602,46.81543c2.71492,0.23676 5.27844,0.98506 8.05124,2.18151c2.23748,0.96546 5.2319,1.12918 6.59884,3.14658c1.43501,2.11785 2.53252,4.44739 3.88891,6.61643c1.28964,2.0623 3.53326,3.86405 3.69753,6.29084c0.25537,3.77252 1.8304,11.9139 0.05161,14.9716c-0.58867,1.01192 -1.41772,2.60286 -2.36284,4.22091c0.67421,2.62979 1.26884,5.28007 1.72359,7.95417c0.32978,1.93923 -2.09089,6.55304 -2.45584,7.46019c-5.36461,13.33498 -21.49068,18.916 -32.74916,25.96247c-1.02102,0.63904 1.65225,1.75577 2.41499,2.68801c1.16322,1.42172 0.36579,2.88681 2.42975,4.57579c1.90219,1.5566 6.12357,-0.12703 8.37036,1.04629c2.68227,1.40074 5.41148,2.83359 7.68877,4.82622c1.02746,0.89903 1.15466,2.49141 1.94582,3.60406c6.00801,8.44935 8.21545,18.8793 2.25437,27.95328c-0.76782,1.16878 1.54923,2.37778 1.9369,3.7214c1.36157,4.71901 0.95431,10.30292 -0.55629,14.96136c-1.50239,4.63309 -6.81735,9.55469 -10.84594,12.04008c-9.77191,6.02866 -19.65589,11.87392 -29.46488,17.84204c1.31624,2.03022 1.71927,4.33089 2.0896,6.6272c8.88412,-3.56319 17.79944,-7.04487 26.79433,-10.31541c5.83949,-2.12324 14.08507,-5.95156 20.6467,-4.40501c3.05762,0.72067 8.46553,1.55985 10.65257,3.93185c8.55723,9.28091 13.55487,19.47368 7.75121,31.45956c-0.8604,1.77693 -1.58399,4.10448 -3.04214,5.57299c-15.29123,15.39994 -39.6922,20.09926 -57.14691,32.52502c-1.06288,0.75665 2.5669,0.91105 3.42576,1.89318c1.54338,1.76491 1.30711,5.37217 3.54359,6.07581c3.03195,0.95391 7.38743,-0.92175 10.80214,-0.05452c7.59829,1.92972 9.08587,3.87332 13.50478,10.09108c1.66706,2.34568 3.92508,4.54988 4.52379,7.50824c0.48031,2.37329 0.09332,4.43722 0.57363,6.81051l4.03816,-1.22901c15.95244,-7.55642 31.68802,0.28456 35.05556,17.75091c0.54937,2.84942 2.66107,5.88883 1.54496,8.5675c-1.38826,3.33182 -2.82845,6.642 -4.28727,9.94354c-3.42063,7.74144 -19.70309,11.67995 -24.77067,15.49103c-0.82542,0.62076 1.9961,0.70764 2.76608,1.39597c0.6114,0.54656 0.65604,1.53363 1.19876,2.14844c0.8559,0.96959 2.30626,1.40661 2.93644,2.53602c4.32817,7.75697 5.13902,21.60736 0,28.90625c-4.09949,5.82246 -10.31815,7.13486 -16.1823,10.08842c-14.00574,7.05419 -28.20149,13.76017 -41.89919,21.39533c-23.35483,13.01809 -46.20944,26.91491 -69.21523,40.54035c-17.93659,10.62315 -33.60506,20.35774 -51.39356,30.22885c-3.1364,1.74044 -9.29612,4.02808 -12.40347,3.48848c-2.1002,-0.36471 -10.02756,-1.10571 -11.14375,-2.1803c-1.96724,-1.89393 -3.83526,-3.88853 -5.77953,-5.80604c-1.48711,-1.46664 -3.04052,-2.86554 -4.51405,-4.34583c-0.70352,-0.70674 -3.31248,-13.85148 -3.90837,-13.77542c-6.5677,0.83837 -11.72576,6.55095 -17.51323,9.76696c-14.94846,8.30664 -30.15102,18.48069 -47.53862,20.30183c-1.40013,0.14665 -5.09361,-1.28883 -5.30288,-1.34676c-8.90266,-2.46448 -9.31526,-4.72392 -15.66026,-12.62866c-1.49005,-1.85633 -1.03248,-4.65004 -1.41651,-6.99924c-0.11467,-0.70148 0.26249,-2.27801 -0.42297,-2.08999c-45.80631,12.56447 -115.80886,42.97131 -149.77524,54.51684c-12.22549,4.15557 -26.04525,11.29072 -38.83425,12.04618c-3.77842,0.22319 -7.58831,0.54538 -11.35387,0.1622c-0.94354,-0.09601 -1.52918,-1.13995 -2.37965,-1.55972c-2.42004,-1.19445 -5.14926,-1.79094 -7.40639,-3.27035c-1.63228,-1.06986 -4.55179,-7.14531 -5.11971,-8.15683c-0.56792,-1.01152 -4.23494,-6.66728 -4.29852,-8.6179c-0.08792,-2.69733 0.82378,-5.33802 1.06397,-8.02607c0.08441,-0.94465 -0.50197,-1.98818 -0.09269,-2.84374c5.59264,-11.69093 12.6549,-14.78612 21.4049,-22.31705c-29.1123,0.18998 -58.25001,1.37379 -87.32236,-0.05922c-12.41208,-0.61181 -25.40036,-2.51351 -37.76367,-2.96545c-2.24545,-0.08208 -7.26275,0.25084 -9.82861,-0.39062c-5.99022,-1.49756 -12.27278,-3.26693 -16.16834,-8.58433c-21.88087,11.58867 -49.63355,25.54297 -72.01672,28.14586c-1.4066,0.16357 -5.07381,-1.2172 -5.32801,-1.28433c-2.30767,-0.60945 -5.25536,-0.27456 -6.86436,-2.03748c-1.75753,-1.92567 -3.26555,-4.0663 -4.96522,-6.04322c-1.28108,-1.49005 -2.7266,-2.83594 -3.97407,-4.35424c-1.51307,-1.84157 -1.05453,-4.64969 -1.50351,-6.99046c-0.56993,-2.97135 -2.57437,-6.15409 -1.44478,-8.96083c0.73108,-1.81654 1.67678,-3.53955 2.4735,-5.32827c0.34103,-0.76564 1.71692,-2.64407 0.93878,-2.33263c-13.56924,5.431 -26.64069,12.03183 -39.99769,17.96569c-5.43552,2.41474 -11.16078,2.55498 -16.74313,1.05856c-2.29166,-0.61431 -5.22966,-0.2761 -6.8201,-2.03666c-9.5591,-10.58158 -9.7881,-11.05999 -12.03461,-25.14188c-0.34414,-2.15718 3.17969,-9.73249 4.98902,-11.51797c1.12941,-1.11453 5.05413,-2.69118 3.54394,-3.17808c-1.83916,-0.59297 -9.88391,-2.35153 -10.62306,-3.23866c-1.76609,-2.11966 -3.45815,-4.30001 -5.20709,-6.43385c-6.09016,-7.43046 -4.92686,-9.08117 -6.5499,-19.64317c-0.14408,-0.93761 3.97201,-8.77184 4.71031,-10.33198c1.29547,-2.73754 6.86518,-6.58416 10.05377,-8.05837c28.60798,-13.22653 57.84704,-25.14447 85.91787,-39.47578c0.07738,-0.0395 -1.20484,-3.70648 -0.71704,-4.92425c0.74892,-1.86963 1.65515,-3.67245 2.46063,-5.51842c0.21155,-0.48483 0.90721,-1.04975 0.5901,-1.47314c-0.88714,-1.18441 -7.81923,-0.59764 -9.85106,-2.33159c-11.00746,-9.39367 -16.21944,-19.50526 -10.63534,-33.54763c1.39661,-3.51207 5.45843,-7.50533 8.54859,-9.64039c18.19839,-12.57367 36.47652,-25.03142 54.74454,-37.50385c-0.42931,-3.39498 -0.32827,-6.76142 0.35363,-9.78106c0.70724,-3.13183 1.73165,-6.42326 3.27203,-9.31049c-1.22723,-0.48882 -2.44458,-0.99486 -3.64964,-1.4158c-2.69212,-0.9404 -3.80256,-4.25071 -5.68978,-6.38853c-1.88723,-2.13782 -5.03424,-3.65027 -5.63346,-6.43824c-0.7672,-3.5695 -2.2127,-7.32516 -1.96786,-10.91409c-8.44529,1.12441 -16.48983,-0.91052 -23.24719,-9.54211c-2.05002,-2.61862 -2.6721,-5.8098 -3.5616,-8.82909c-0.51351,-1.74303 -1.79248,-3.25522 -2.03935,-5.05547c-0.59187,-4.31619 1.85307,-9.72234 3.97263,-13.35787c6.06151,-10.3969 22.67018,-20.33361 32.45301,-27.40574c4.90189,-3.54364 9.59176,-7.37597 14.51588,-10.88865c5.74871,-4.10091 11.82498,-7.73206 17.54221,-11.87676c0.44346,-0.32148 -1.01609,-0.44387 -1.4413,-0.78912c-1.37935,-1.11996 -2.87769,-2.14163 -4.30455,-3.23077c-2.73102,-0.70517 -5.3894,-1.63947 -7.63626,-3.26236zM505.775,-52.12315c8.37995,-6.17628 57.80744,-25.61836 26.55208,-18.96923c-20.70752,4.40523 -42.5354,12.33088 -64.45247,22.09098c0.79396,0.08602 1.55103,0.22264 2.24887,0.41767c8.47571,2.36869 8.9962,3.29189 13.99092,10.26848c0.31438,0.43912 0.68152,0.8962 1.06778,1.3702c6.86419,-5.05948 13.72845,-10.11885 20.59282,-15.1781z" fill="#000000" stroke-width="0.5"/><text transform="translate(24.8574,203.02605) scale(1.99576,1.99576)" font-size="40" xml:space="preserve" fill="#ffffff" fill-rule="nonzero" stroke="none" stroke-width="1" stroke-linecap="butt" stroke-linejoin="miter" stroke-miterlimit="10" stroke-dasharray="" stroke-dashoffset="0" font-family="Sans Serif" font-weight="normal" text-anchor="start" style="mix-blend-mode: normal"><tspan x="0" dy="0">Game Over</tspan></text></g></g></svg>