<svg version="1.1" xmlns="http://www.w3.org/2000/svg" xmlns:xlink="http://www.w3.org/1999/xlink" width="907.86093" height="565.21068" viewBox="0,0,907.86093,565.21068"><g transform="translate(214.47503,96)"><g data-paper-data="{&quot;isPaintingLayer&quot;:true}" fill="#000000" fill-rule="nonzero" stroke="none" stroke-width="0.5" stroke-linecap="butt" stroke-linejoin="miter" stroke-miterlimit="10" stroke-dasharray="" stroke-dashoffset="0" style="mix-blend-mode: normal"><path d="M40.62461,-46.82344l-1.34339,-2.7532l-4.19046,-5.38773l-0.24712,-3.70681l-0.78443,-1.60763l0.35653,-4.81079l-0.32089,-4.8133l0.79631,-1.60178l0.27457,-3.70488l4.23025,-5.35655l1.36375,-2.74317l9.88241,-5.59237l1.70621,-0.18958l1.53983,-0.45893l26,-5l1.58806,-0.14382l1.57366,-0.25733l16,-1l0.7814,0.02912l0.77806,-0.07781h61l1.35225,0.13522l1.35894,0.01222l55,6l3.84085,0.81194l0.09175,0.04061h17.35622l0.24705,0.0247l1.15049,-0.18047l1.91935,0.48745l0.58936,0.05894l1.41313,0.44963l7.08381,1.79906l1.55137,1.74189l7.13919,6.16566l0.08286,0.3066l15.06847,0.14773l2.05914,0.22632l0.26234,-0.01246l0.78761,0.12786l0.79315,0.08718l0.24948,0.08208l2.04477,0.33194l11.74164,3.1311l1.51243,-0.11067l1.66984,0.95927l0.07609,0.02029l2.12345,0.79993l60.98934,8.47074l14.10863,0.94058l0.20516,0.03442l0.208,-0.00344l24,2l1.42868,0.26413l0.40143,0.04014l0.25558,0.08132l1.77462,0.32808l2.50952,1.03505l4.05403,1.28992l0.84704,0.73153l0.9264,0.3821l2.66616,2.72057l4.15415,3.58767l0.24304,0.89926l0.88436,0.90241l1.33892,7.32374l1.13782,4.20992l28.1763,4.41981l2.83274,0.73922l0.47677,0.01311l0.30949,0.19207l0.17953,0.04685l8.06619,4.0331l1.85282,2.18709l2.3131,1.43548l1.22921,2.74591l0.66575,0.78586c5.45259,-0.68129 12.48227,-1.51915 17.4693,-1.47928c16.04982,0.1283 32.10055,0.22525 48.1482,0.5185c4.4426,0.08118 8.47994,1.38621 12.46562,3.25942c8.01164,3.76536 12.0658,14.20152 12.39009,23.11906l9.98472,0.10294l1.03306,0.11407l2.20307,-0.44586l6.23695,2.59873l2.99403,0.98675l0.56063,0.49436l0.68996,0.28748l2.19837,2.25944l5.06782,4.46879l0.56406,2.17581l0.555,0.87875l5,10l1.39754,3.66855l0.81793,5.2143l0.98088,3.12044l-1.71748,5.75719l-1.47887,5.82305l-0.42758,0.38081c5.46566,0.80172 11.07285,2.67834 13.29539,6.28388c2.14236,3.47547 3.99803,7.12752 5.73869,10.82059c1.59916,3.39285 0.66106,11.60824 0.36648,14.96721c-0.31773,3.62294 -5.24648,9.21379 -8.18717,11.48485c-0.53058,0.40977 -1.45477,0.35041 -1.77967,0.93681c-1.84305,3.32646 -0.99892,7.54038 -1.56787,11.3005c-0.17982,1.18841 -6.26521,7.08325 -7.55209,8.47954c-2.08261,2.25966 -8.47803,4.24712 -11.98551,4.72898c-12.37872,1.70057 -24.82528,2.92411 -37.16463,4.89008c-2.83317,0.4514 -5.77371,0.95347 -8.27959,2.35033c-0.63368,0.35324 0.0889,1.4489 0.17088,2.16973c0.06956,0.61163 -0.33192,1.80872 0.28344,1.82483c10.30653,0.26983 20.6064,-0.77181 30.91376,-1.00806c25.86606,-0.59286 64.73798,0.70339 80.15259,0.989c2.17939,0.04038 6.60608,0.78546 8.75728,1.50208c3.39361,1.1305 10.83913,6.24797 12.19203,9.32886c0.9355,2.13035 -0.46226,6.24356 1.8106,6.7412c4.75839,1.04185 12.47272,2.87499 15.02662,7.45211c6.1646,11.04824 8.6987,22.07371 0.2392,32.42064c-1.23605,1.51182 -2.48366,3.61792 -4.23039,4.69615c-12.5331,7.73648 -33.67593,9.90307 -44.48504,12.96406c-21.05529,5.96257 -42.56319,10.76406 -62.84838,18.9731c-7.19305,2.91089 15.39279,-1.98111 23.0994,-2.88742c3.75001,-0.44101 9.80087,-0.22543 12.79108,1.55043c10.58569,6.28677 9.97945,6.7874 14.92165,18.86835c0.90258,2.20631 -0.31788,4.7601 -0.62511,7.12401c-0.06293,0.48416 -0.61499,1.49439 -0.12803,1.45909c2.37491,-0.17218 26.48701,-5.59145 33.42205,-1.61785c2.92451,1.67567 5.82968,3.38918 8.66651,5.20935c2.54018,1.62983 2.73615,5.3825 3.98724,8.12907c3.76138,8.25753 2.75686,10.24568 1.53009,20.24575c-0.27271,2.22302 -5.72932,8.48718 -7.99665,9.72613c-1.41008,0.77051 -4.94593,0.61664 -4.33731,2.10378c1.16915,2.8568 4.70484,7.01249 4.5292,9.89887c-0.04105,0.67454 -1.20945,11.16624 -0.95778,11.94309c0.11481,0.35439 4.38304,2.77455 4.88082,3.72458c5.86547,11.19447 8.07987,22.30812 -0.64081,32.40481c-1.28343,1.48594 -2.58571,3.55242 -4.36735,4.58848c-12.30501,7.15563 -32.71884,8.85833 -43.34412,11.45206c-0.7286,0.17786 -2.02193,2.97673 -2.41753,3.26245c-2.51331,1.81527 -7.13256,4.03916 -10.1757,5.03904c-22.67636,7.4508 -46.66908,16.93622 -70.57399,22.94902c-19.99278,5.02878 -39.97065,10.1189 -60,15c-2.08427,0.50793 -4.22591,1.07439 -6.36692,0.93916c-5.06668,-0.32 -13.10492,-2.40178 -16.65502,-6.05515c-2.10512,-2.16636 -6.51845,-9.94339 -7.29502,-13.07419c-0.36397,-1.46736 1.2545,-4.25087 -0.23141,-4.52958c-1.54804,-0.29036 -3.17311,-0.05543 -4.71857,0.24835c-52.43093,10.30595 -103.83217,32.4082 -157.25107,31.12934c-15.95898,-0.38206 -32.59125,-2.94046 -47.6564,-5.90975c-3.89422,-0.76754 -9.68815,-2.29833 -12.22995,-5.01625c-1.4939,-1.59741 -2.16515,-5.14404 -4.34077,-4.92022c-14.04535,1.44495 -27.13951,8.6865 -41.21786,9.76351c-5.50062,0.4208 -10.98771,-0.81011 -15.95173,-3.33508c-1.18256,-0.60152 -2.24888,-1.4529 -3.16775,-2.40995c-0.71054,-0.74006 -0.51657,-3.01299 -1.49116,-2.69248c-54.07681,17.78386 -107.48222,37.54808 -161.26043,56.21547c-3.32161,1.15299 -9.99821,2.2365 -12.83204,1.16382c-3.42364,-1.29595 -6.84217,-2.60592 -10.2459,-3.95331c-2.67497,-1.05891 -3.33732,-4.68734 -4.97582,-7.0521c-1.27281,-1.83699 -3.58917,-3.30933 -3.78231,-5.53582c-0.18267,-2.10572 -0.28387,-4.21783 -0.45276,-6.3247c-0.22989,-2.86774 -2.01555,-6.09507 -0.61627,-8.60878c3.35714,-6.03086 4.5807,-8.96862 9.7465,-12.89302c1.36829,-1.03948 2.72304,-2.14259 4.27415,-2.88205c0.94145,-0.44881 3.14285,-0.28479 2.85218,-1.28642c-0.12078,-0.41619 -2.84594,-1.74457 -3.11938,-2.06473c-0.70564,-0.82622 -0.65489,-2.2964 -1.59365,-2.8435c-0.58993,-0.3438 -1.26501,0.51758 -1.87667,0.82104c-9.49032,4.70843 -18.92034,9.53821 -28.42703,14.21351c-5.44157,2.67611 -11.28514,3.05687 -17.04061,1.66169c-2.18687,-0.53012 -5.0149,-0.00985 -6.54292,-1.66169c-1.86091,-2.01172 -3.62858,-4.1079 -5.46789,-6.13939c-1.51023,-1.66802 -4.00174,-2.84435 -4.4896,-5.04095c-1.04907,-4.72348 -2.0714,-9.45329 -3.03118,-14.19573c-0.44635,-2.2055 1.62951,-4.19526 2.47838,-6.27922c2.23852,-5.49553 5.96486,-9.98181 11.3133,-12.85118c5.99544,-3.21647 12.33127,-5.8333 18.08091,-9.47095c0.51092,-0.32325 0.31908,-1.88484 -0.27838,-1.79228c-18.81796,2.91541 -49.92549,13.8461 -65.09128,18.35061c-6.18246,1.8363 -19.58364,7.05726 -27.1206,4.52576c-2.977,-0.99991 -8.35929,-2.23193 -10.30204,-4.77543c-2.0359,-2.66544 -7.26314,-9.11678 -7.72653,-12.8239c-0.50836,-4.06689 -0.89883,-8.16016 -0.95759,-12.25829c-0.02848,-1.98617 3.03881,-6.13112 3.56909,-7.02416c2.82875,-4.76385 6.64352,-8.52122 11.96077,-10.72426c3.74449,-1.55141 14.87974,-6.17416 22.25671,-9.10336c5.80481,-2.30494 12.11125,-3.61098 17.41948,-6.90206c0.93954,-0.58251 -1.0118,-1.97028 -1.61593,-2.89608c-0.93779,-1.43713 -2.16653,-2.68319 -3.00268,-4.18174c-0.3881,-0.69555 0.15265,-2.5076 -0.61845,-2.30808c-21.537,5.57268 -42.87792,11.87927 -64.36517,17.64082c-13.46454,3.61036 -26.90899,-4.16968 -30.71899,-17.50268c-8.13685,-28.47474 36.95811,-43.52888 52.51588,-52.91181c0.38424,-0.23174 -0.92447,0.16247 -1.34611,0.00895c-3.55659,-1.29498 -7.44301,-2.09124 -10.49975,-4.32343c-2.09524,-1.53005 -2.80932,-4.36434 -4.30257,-6.48597c-1.49325,-2.12163 -3.92031,-3.75028 -4.65355,-6.23895c-1.18545,-4.02354 -0.48752,-8.41052 -0.06251,-12.58348c0.07154,-0.70237 -0.36966,-1.45321 -0.12233,-2.11448c1.25824,-3.36404 3.99406,-7.27898 6.23154,-10.06892c3.02641,-3.77365 5.84524,-7.70979 8.83383,-11.51346c8.09162,-10.29842 28.71034,-16.63992 37.67926,-20.83221c1.00398,-0.46928 -1.29298,-1.86935 -1.52937,-2.95209c-0.24526,-1.12339 0.26548,-2.3049 0.1323,-3.44701c-0.20754,-1.77987 -1.21537,-3.46146 -1.14665,-5.25207c0.05148,-1.34122 1.16172,-2.43909 1.49178,-3.74008c0.20684,-0.8153 -0.21484,-1.74025 0.09678,-2.52152c0.52216,-1.30913 2.93503,-2.26778 2.31914,-3.53551c-0.74523,-1.53397 -3.33423,-1.35451 -4.31413,-2.7503c-1.14668,-1.63336 -1.40476,-3.75246 -2.37977,-5.49375c-0.975,-1.74129 -2.64679,-3.06882 -3.44005,-4.90007c-1.78686,-4.12502 0.25011,-11.19862 1.25555,-14.92807c0.28679,-1.06377 -0.07331,-2.28356 0.39289,-3.2818c0.85353,-1.82759 2.48157,-3.18092 3.75311,-4.74674c13.97104,-17.20441 16.25934,-17.72788 36.79783,-33.68302c2.20906,-1.71609 8.1126,-4.69217 8.45858,-5.61662c0.55536,-1.48388 -3.02424,-0.96736 -4.57716,-1.2816c-1.69307,-0.34261 -3.41765,-0.83539 -4.87072,-1.76945c-5.88331,-3.7819 -11.08883,-7.64081 -13.81252,-14.41437c-0.45579,-1.1335 0.25985,-2.46448 0.03315,-3.66498c-0.2267,-1.20049 -1.37842,-2.17885 -1.36737,-3.40051c0.17467,-19.31122 17.50624,-24.75372 29.83561,-35.71796c0.4783,-0.42534 -0.744,-1.0932 -0.84204,-1.72571c-0.3507,-2.26249 -1.10431,-4.52133 -0.9351,-6.80458c0.48939,-6.60355 4.56478,-12.40374 9.07914,-17.0374c4.08511,-4.19307 10.67447,-5.76468 15.65416,-8.68343c11.22207,-6.57758 21.47543,-12.41946 33.55248,-18.48713c25.24647,-12.68415 37.73238,-16.49934 68.25829,-28.05506c1.64563,-0.62296 3.71178,-1.2438 6.00275,-1.84466zM470.43203,54.7922l3.54868,-0.08551c-0.16198,-0.18189 -0.32754,-0.36705 -0.49649,-0.55528z"/></g></g></svg>