<svg version="1.1" xmlns="http://www.w3.org/2000/svg" xmlns:xlink="http://www.w3.org/1999/xlink" width="1043.9179" height="655.06095" viewBox="0,0,1043.9179,655.06095"><g transform="translate(343.91721,124.18699)"><g data-paper-data="{&quot;isPaintingLayer&quot;:true}" fill-rule="nonzero" stroke="none" stroke-linecap="butt" stroke-linejoin="miter" stroke-miterlimit="10" stroke-dasharray="" stroke-dashoffset="0" style="mix-blend-mode: normal"><path d="M-70.08479,111.14794l-2.02461,-1.9548l-0.68595,-0.43775l-2.80081,-2.75079l-0.75907,-0.91088l-1.89839,-1.83293l-0.1262,-0.59658l-2.21634,-2.65961l-1.29516,-1.91331l-1.3743,-1.5913l-1.30678,-4.10704l-1.62536,-3.9917l0.03704,-2.10228l-0.2299,-2.29899v-0.13044l-2.48327,-1.0347l-3.01673,-0.95987l-0.6647,-0.57406l-0.81072,-0.3378l-2.20766,-2.26898l-4.91067,-4.24103l-0.59849,-2.21443l-0.66844,-1.05836l-1,-2l-1.39754,-3.66855l-0.39741,-2.5335l-1.34461,-3.08712l0.4665,-2.51086l-0.12202,-0.77785l0.99289,-3.90951l0.73681,-3.96576l0.43675,-0.65513l0.62863,-2.47525l2.51454,-2.23951l1.42252,-2.13378l2.80625,-2.74524l5,-4l0.1443,-0.09353l0.12456,-0.11856l26.09967,-20.29975l-0.59697,-1.54442l-3.28963,-5.72639l0.82864,-11.32476l1.34479,-2.59993l0.47113,-2.93646l2.36939,-2.52527l2.44381,-2.98688l3,-3l0.74394,-0.60868l0.66394,-0.69507l7,-6l0.90723,-0.63268l0.8316,-0.72925l7,-5l0.19558,-0.11214l0.17215,-0.14558l16,-11l1.23099,-0.67668l1.16753,-0.78109l15,-8l1.1012,-0.45302l1.04812,-0.56507l12,-5l3.75601,-1.14183l0.99826,-0.08681l0.95486,-0.30382l3.90625,-0.39062h3l0.05814,0.00581l0.06686,-0.00581l0.05466,0.01797l1.02231,0.10223l3.49366,-0.25563l3.03266,1.74216l4.77171,1.51827l4.22911,3.65241l0.94856,0.54492l0.31273,0.54437l3.10335,2.68017l1.38928,5.14035l2.6524,4.61715l-0.18358,2.50891c1.19046,-0.30265 2.37917,-0.53758 3.56055,-0.68921c2.9389,-0.3772 13.02846,-2.09681 17.18322,-1.25951c0.50005,0.10077 6.59394,3.11086 6.88426,3.05206c4.16613,-0.84377 16.83941,-8.75127 16.92011,-8.79163c7.07968,-3.53984 17.60951,-4.03397 25.17498,-3.69321c4.46298,0.20102 11.08193,2.08054 14.19252,4.76695c2.42653,2.09564 5.05785,3.9864 7.22625,6.34813c0.51066,0.55619 -0.12927,2.41326 0.591,2.18672c32.66335,-10.27348 63.26881,-24.83176 95.85837,-34.59559c3.41791,-1.024 9.97362,-1.93548 12.86311,-0.74569c1.44926,0.59675 9.96972,4.85677 10.48639,4.63081c6.63665,-2.90259 13.24743,-5.86408 19.85793,-8.82575c3.66873,-1.64368 17.67414,-8.92535 23.57709,-7.28418c3.53104,0.98173 7.05839,1.97742 10.57478,3.01042c0.72416,0.21274 8.54129,9.9944 9.7038,11.40123c1.42226,1.72118 0.80112,4.39317 1.18085,6.59342c0.46901,2.71761 1.01189,5.42241 1.45851,8.14379c0.05441,0.33155 0.05185,0.65593 0.00508,0.97472l26.92496,-1.97012l0.72929,0.01942l0.72477,-0.08334l20.77773,-0.30782c31.39283,-13.48184 62.7562,-27.2101 94.30271,-39.86077c23.56035,-9.4481 47.63336,-18.29495 71.4037,-27.20155c3.57256,-1.33862 9.05206,-2.34458 12.79448,-1.52217c3.06555,0.67366 8.43763,1.53319 10.67063,3.88257c8.60841,9.05705 13.5686,19.47036 7.95867,31.30833c-0.88246,1.86215 -1.59278,4.15974 -3.07846,5.70206c-1.86409,1.93514 -5.21988,4.70386 -7.56038,5.98343c-13.70197,7.491 -27.56212,14.69811 -41.35396,22.02663l30.14624,2.04381l1.85961,0.31417l1.87262,0.2239l9,2l3.72849,1.22871l0.27128,0.15776l3.67253,1.05585l1.7572,2.10166l2.09492,1.21824l0.73554,0.98838c3.98397,-1.08198 8.40977,-1.86421 14.03454,-2.39346c1.64318,-0.15461 3.1541,0.9734 4.72827,1.46933c2.10821,0.66417 4.93269,0.30034 6.31399,2.02593c1.73686,2.1698 3.42496,4.37824 5.15053,6.55704c1.32693,1.67546 2.68663,3.32486 4.00685,5.00561c1.36591,1.73891 0.65695,4.37341 0.9723,6.56203c0.40693,2.82414 2.41107,5.90614 1.17673,8.47864c-3.82802,7.97802 -5.13777,10.34906 -11.65204,15.9474c-0.71258,0.61239 -2.80226,1.62469 -3.42476,1.91896c-1.61815,0.76496 -6.5484,1.3978 -4.92225,2.14559c0.63846,0.2936 10.8978,-2.43847 13.74118,-2.19255c3.12221,0.27003 8.19575,1.49896 10.95849,2.97462c0.8817,0.47094 1.22584,2.47211 2.14979,2.09068c10.87087,-4.48775 19.24447,-10.73565 30.95699,-7.98106c0.41867,0.09846 6.07148,0.87411 7.35366,2.16217c1.72347,1.73138 3.03849,3.82981 4.6671,5.65071c0.88554,0.99009 4.3234,3.80887 4.86702,5.89278c1.0372,3.97594 3.75905,10.9838 2.42111,14.77463c-0.97079,2.75058 -2.62158,7.99225 -4.75472,10.31162c-22.81318,24.80481 -58.40484,33.6951 -86.73963,51.93955c-1.63214,1.05092 0.041,3.89243 -0.1819,5.82081c-0.15026,1.29992 -0.59961,2.54783 -0.93172,3.81356c-1.30325,4.9669 -2.78288,11.22204 -5.07276,15.46153c-0.44122,0.81688 3.24643,4.37836 3.7885,5.13211c1.29867,1.80582 0.49142,4.42143 0.71919,6.63404c0.29352,2.85132 2.16043,6.0261 0.82033,8.55993c-1.72159,3.25514 -3.47268,6.49468 -5.23465,9.72814c-1.45596,2.67189 -7.24628,6.15244 -10.50952,7.45424c-8.69967,3.47054 -18.49501,4.85443 -26.17768,10.21217c-1.80398,1.25806 2.47216,3.63829 3.72206,5.44793c0.1648,0.2386 0.24802,0.79229 0.52162,0.69621c15.48341,-5.43709 30.73769,-11.50782 46.16873,-17.09181c3.6014,-1.30323 9.05643,-2.26064 12.80742,-1.40908c1.09628,0.24888 5.23711,2.28812 6.40126,1.88953c22.12468,-7.57516 43.82264,-16.34375 65.75238,-24.466c5.77611,-2.13934 19.14734,-2.2454 23.44757,2.52866c2.26321,2.51258 7.93501,8.50355 8.70131,12.18354c0.86482,4.15306 2.97831,11.00877 1.37927,14.90803c-1.13682,2.77212 -3.18055,7.70406 -5.46599,9.95287c-22.98088,22.61249 -56.89639,30.34154 -85.41124,45.38644c-1.17001,0.61731 2.64393,-0.18002 3.94844,-0.39971c2.76902,-0.46631 6.05592,0.28046 8.82735,0.88432c8.35273,1.81996 14.82524,10.73171 16.75171,18.81876c2.21937,9.31657 -1.27617,17.28521 -7.70837,23.98638c-3.77218,3.92991 -13.68387,7.57695 -16.66521,9.58779c-0.35892,0.24208 0.50012,0.73501 0.8638,0.96988c1.00477,0.64889 2.39252,0.75363 3.18803,1.64683c1.26022,1.41498 1.66831,3.41564 2.72282,4.98991c0.69718,1.04081 1.89948,1.70682 2.49954,2.8065c1.55735,2.85405 1.50637,6.0337 1.84221,9.1027c0.20612,1.88357 1.18141,3.67744 1.12756,5.57149c-0.12572,4.42271 -4.85207,11.72843 -8.07058,14.85995c-0.87052,0.84699 -5.48344,3.69661 -6.07953,4.00687c-22.02517,11.46378 -27.1659,12.74466 -53.90614,23.65786c-2.04058,0.8328 -2.39033,3.70362 -3.6007,5.5455c-2.44343,3.71828 -4.82295,6.48951 -8.84548,8.44718l0.50244,2.48263l-4.36732,10.48157l-1.85739,1.80719l-1.25611,2.52666l-3.20452,1.81341l-0.14561,0.14168l-3.31916,2.09631l-2,1l-0.46072,0.17551l-3.8186,4.77325l-0.18773,0.15421l-1.27248,1.91822l-2.4695,1.01685l-2.10381,1.40254l-1.05861,0.56239l-0.04234,0.03484l-1.1855,0.61745l-1.18042,0.6271l-0.0527,0.01515l-1.06316,0.55373l-10,4l-1.07079,0.30888l-1.03028,0.42486l-8.1675,2.45025l-0.24017,0.40369l-2.55745,1.8639l-3.71858,3.2115l-1.67136,0.5318l-2.92295,1.31029l-3,1l-2.44232,0.55149l-0.26908,0.10148l-0.56266,0.08633l-0.55526,0.12538l-0.28755,0.00394l-2.47485,0.37974l-19,1l-0.65826,-0.03102l-0.65572,0.06557h-55.17802c-17.37383,7.32417 -34.74581,14.68482 -53.24446,17.4934c-5.5044,0.83571 -16.25223,0.07461 -19.59888,-3.80045c-2.32724,-2.69469 -4.68977,-5.36538 -6.85364,-8.19294c-0.32223,-0.42106 0.03293,-1.64096 -0.48229,-1.51576c-3.02194,0.73437 -5.37134,3.17438 -8.23952,4.37644c-2.8842,1.20877 -7.90715,2.40199 -11.00565,2.79508c-2.88026,0.36541 -6.1681,-0.61489 -8.90933,-1.39754c-0.68267,-0.19491 -4.20404,-1.75319 -4.69767,-1.53038c-25.37187,11.45233 -50.21789,24.03577 -75.34699,36.01143c-14.98531,7.14148 -30.88382,12.18594 -46.406,18.07001c-3.99614,1.51484 -8.58881,2.06479 -12.78434,1.60511c-10.86113,-1.18998 -17.46372,-9.67052 -19.95302,-19.55016c-0.45773,-1.81664 -1.67234,-3.43698 -1.87039,-5.2999c-0.33526,-3.1535 1.41704,-8.26024 2.86655,-10.98725c0.91772,-1.72654 1.97816,-3.38212 3.14115,-4.95394c0.37667,-0.50908 1.63271,-0.57702 1.47972,-1.19154c-0.28481,-1.14401 -1.27312,-2.85847 -2.41878,-2.58038c-18.70687,4.54084 -36.84183,11.17987 -55.31475,16.59442c-3.34372,0.98007 -9.46793,1.51833 -12.87079,0.59864c-7.49886,-2.02672 -12.09188,-5.44407 -16.18791,-12.0443c-1.26194,-2.03346 -2.24993,-6.11334 -2.73437,-8.59375c-0.16336,-0.8364 0.5467,-2.8346 -0.25439,-2.54391c-14.07829,5.10865 -27.53258,11.79615 -41.32527,17.63211c-6.70145,2.83552 -19.99505,6.20654 -22.62727,6.9512c-4.15888,1.17656 -8.66139,1.36738 -12.87079,0.59864c-0.7812,-0.14267 -2.51938,-1.49201 -3.47983,-1.08371c-2.625,1.11593 -4.92212,2.88591 -7.4296,4.24549c-3.87775,2.10254 -8.07527,2.56882 -12.3669,3.48845c-1.5826,0.33913 -3.17792,-0.61596 -4.76659,-0.92541c-2.13826,-0.4165 -4.87462,0.28682 -6.41373,-1.25486c-1.98565,-1.98897 -3.96482,-3.9844 -5.94828,-5.97556c-0.631,-0.63345 -1.06223,-2.22348 -1.89511,-1.89828c-79.20029,30.92457 -157.74962,63.49146 -236.69599,95.05863c-5.78115,2.31163 -18.92116,2.71189 -23.50475,-1.92597c-1.78833,-1.80951 -8.25479,-9.01342 -9.01117,-11.95618c-0.97216,-3.78228 -1.8191,-7.61385 -2.27856,-11.49194c-0.77096,-6.50728 7.74224,-16.46476 13.15229,-19.5755c16.84803,-9.68748 34.32825,-18.31228 50.72557,-28.74449c0.90148,-0.57353 -2.13061,-1.62041 -2.38255,-2.59788c-0.5228,-2.02827 -0.94222,-4.082 -1.44758,-6.11468c-0.66028,-2.6558 -1.41875,-5.28705 -2.0492,-7.95009c-0.51928,-2.19346 1.48857,-4.25557 2.2692,-6.37017c0.58672,-1.58934 0.64954,-3.50948 1.80003,-4.75311c18.05973,-19.52184 33.25145,-22.18595 63.44307,-39.32173l-1.45893,0.76203c-5.6267,2.25832 -10.65728,3.26317 -16.59347,2.06062c-2.34471,-0.47499 -5.27246,0.02579 -6.98637,-1.64328c-1.58999,-1.54839 -9.41464,-8.33918 -10.15378,-11.00238c-1.21941,-4.39366 -2.37182,-8.80891 -3.35524,-13.26134c-0.51596,-2.33604 1.45188,-4.56091 2.28318,-6.80418c1.99735,-5.38983 5.39678,-9.9955 10.49205,-13.01946c55.71454,-33.06565 111.6736,-65.72049 167.23533,-99.04228c0.34293,-0.20566 -0.77741,-0.32202 -1.01,-0.64729c-1.15957,-1.62165 -2.55229,-3.10327 -3.46035,-4.87803c-0.54888,-1.07275 -0.39001,-2.39748 -0.83515,-3.51727c-0.68233,-1.71645 -2.09732,-3.13594 -2.52404,-4.93308c-0.88206,-3.71485 0.74349,-9.89696 2.65568,-14.22919c-1.92627,-4.18417 -3.03064,-8.62688 -3.32213,-13.24218c-0.07958,-1.26006 0.78609,-3.216 0.50431,-4.40884c-0.07175,-0.30374 -0.69228,-0.00445 -0.9075,-0.23048c-3.44136,-3.61425 -7.72564,-6.71664 -9.95749,-11.18034c-2.23185,-4.4637 -3.2466,-9.69132 -2.96978,-14.6742c0.70998,-12.77962 22.63615,-24.76813 31.033,-31.28005c3.62136,-2.80843 7.24378,-5.61553 10.86773,-8.42068c-0.09197,-0.06849 -0.18044,-0.13902 -0.26512,-0.21166c-1.54687,-1.32709 -2.40637,-3.30178 -3.79147,-4.79694c-0.94874,-1.02413 -2.31299,-1.63179 -3.17866,-2.72704c-1.90172,-2.40604 -2.16281,-5.53821 -2.90192,-8.36843c-0.51499,-1.972 -1.71698,-3.75899 -2.00326,-5.77692c-0.06123,-0.43159 0.05911,-0.84862 0.22249,-1.2642z" fill="#000000" stroke-width="0.5"/><text transform="translate(141.60938,88) scale(0.5,0.5)" font-size="40" xml:space="preserve" fill="#000000" fill-rule="nonzero" stroke="none" stroke-width="1" stroke-linecap="butt" stroke-linejoin="miter" stroke-miterlimit="10" stroke-dasharray="" stroke-dashoffset="0" font-family="Sans Serif" font-weight="normal" text-anchor="start" style="mix-blend-mode: normal"><tspan x="0" dy="0">Game </tspan></text><text transform="translate(21.32016,209.09194) rotate(-0.03697) scale(1.85182,2.4959) skewX(0.00167)" font-size="40" xml:space="preserve" fill="#ffffff" fill-rule="nonzero" stroke="none" stroke-width="1" stroke-linecap="butt" stroke-linejoin="miter" stroke-miterlimit="10" stroke-dasharray="" stroke-dashoffset="0" font-family="Sans Serif" font-weight="normal" text-anchor="start" style="mix-blend-mode: normal"><tspan x="0" dy="0">¡Ganador(a)!</tspan></text><text transform="translate(122.31491,282.25) scale(0.56501,0.56501)" font-size="40" xml:space="preserve" fill="#ffffff" fill-rule="nonzero" stroke="none" stroke-width="1" stroke-linecap="butt" stroke-linejoin="miter" stroke-miterlimit="10" stroke-dasharray="" stroke-dashoffset="0" font-family="Sans Serif" font-weight="normal" text-anchor="start" style="mix-blend-mode: normal"><tspan x="0" dy="0">Puede cerrar el juego.</tspan></text></g></g></svg>