<svg version="1.1" xmlns="http://www.w3.org/2000/svg" xmlns:xlink="http://www.w3.org/1999/xlink" width="3.53038" height="11.02672" viewBox="0,0,3.53038,11.02672"><g transform="translate(-237.82617,-170.34828)"><g data-paper-data="{&quot;isPaintingLayer&quot;:true}" fill="#ffffff" fill-rule="nonzero" stroke="none" stroke-width="0.5" stroke-linecap="butt" stroke-linejoin="miter" stroke-miterlimit="10" stroke-dasharray="" stroke-dashoffset="0" style="mix-blend-mode: normal"><path d=""/><path d=""/><path d="M238.20117,179c0.00214,-1.6363 -0.20606,-3.24821 -0.3688,-4.87562l-0.0062,-0.62438c0,0 0,-0.82183 0.66638,-1.13274c0.12282,-0.29243 0.26381,-0.58617 0.42632,-0.8852c0.0749,-0.13782 0.39129,-0.75409 0.74543,-1.102c0.3346,-0.08508 0.63687,0.01504 0.85043,0.13123c0.01966,0.04498 0.03864,0.09456 0.05686,0.14901c0.54706,1.63502 0.74159,3.44666 0.78497,5.29499c-0.3358,0.25812 -0.46624,0.64943 -0.46624,0.64943l-0.13643,0.4111c-0.03565,0.11984 -0.06974,0.25926 -0.10554,0.41022c0.0067,0.10856 0.01287,0.21717 0.01844,0.32586c0.74354,0.34385 0.65318,1.24749 0.65318,1.24749c-0.04167,0.41667 -0.08333,0.83333 -0.125,1.25l-1.6188,1.12562c0,0 -1.25,0 -1.25,-1.25c0,-0.16901 0.02285,-0.31516 0.06237,-0.44156c-0.18737,-0.33071 -0.18737,-0.68344 -0.18737,-0.68344z"/></g></g></svg>