<svg version="1.1" xmlns="http://www.w3.org/2000/svg" xmlns:xlink="http://www.w3.org/1999/xlink" width="8.66667" height="7.83334" viewBox="0,0,8.66667,7.83334"><g transform="translate(-235.51823,-175.66666)"><g data-paper-data="{&quot;isPaintingLayer&quot;:true}" fill-rule="nonzero" stroke="none" stroke-linecap="butt" stroke-linejoin="miter" stroke-miterlimit="10" stroke-dasharray="" stroke-dashoffset="0" style="mix-blend-mode: normal"><path d="" fill="#ffffff" stroke-width="0.5"/><path d="" fill="#ffffff" stroke-width="0.5"/><path d="" fill="#ff0000" stroke-width="0.5"/><path d="M238.4349,183.5v-7.83334h2.83333v7.83334z" fill="#ff0000" stroke-width="0"/><path d="M236.3886,178.4776c-0.31064,-1.07459 0.77406,-1.48135 0.77406,-1.48135l1.54921,-0.55953c2.22482,0.00673 6.69005,1.16293 4.59643,4.58999c-1.13631,1.86004 -6.53128,1.62471 -7.06168,-0.80546c-0.1538,-0.70466 -0.08355,-1.28233 0.14199,-1.74365z" fill="#fcff5f" stroke-width="0.5"/><path d="M238.6849,179.66667c0,-0.69036 0.55964,-1.25 1.25,-1.25c0.69036,0 1.25,0.55964 1.25,1.25c0,0.69036 -0.55964,1.25 -1.25,1.25c-0.69036,0 -1.25,-0.55964 -1.25,-1.25z" fill="#ff0000" stroke-width="0.5"/><path d="M241.35156,178c0,-0.69036 0.55964,-1.25 1.25,-1.25c0.69036,0 1.25,0.55964 1.25,1.25c0,0.69036 -0.55964,1.25 -1.25,1.25c-0.69036,0 -1.25,-0.55964 -1.25,-1.25z" fill="#ff0000" stroke-width="0.5"/><path d="M241.6849,182.16667c0,-0.69036 0.55964,-1.25 1.25,-1.25c0.69036,0 1.25,0.55964 1.25,1.25c0,0.69036 -0.55964,1.25 -1.25,1.25c-0.69036,0 -1.25,-0.55964 -1.25,-1.25z" fill="#ff0000" stroke-width="0.5"/><path d="M235.51823,182c0,-0.69036 0.55964,-1.25 1.25,-1.25c0.69036,0 1.25,0.55964 1.25,1.25c0,0.69036 -0.55964,1.25 -1.25,1.25c-0.69036,0 -1.25,-0.55964 -1.25,-1.25z" fill="#ff0000" stroke-width="0.5"/><path d="M235.6849,178c0,-0.69036 0.55964,-1.25 1.25,-1.25c0.69036,0 1.25,0.55964 1.25,1.25c0,0.69036 -0.55964,1.25 -1.25,1.25c-0.69036,0 -1.25,-0.55964 -1.25,-1.25z" fill="#ff0000" stroke-width="0.5"/></g></g></svg>